<svg width="423" height="286" viewBox="0 0 423 286" fill="none" xmlns="http://www.w3.org/2000/svg">
<path d="M391.891 89.1353L407.969 40.9945L423 36.0522L422.724 35.0181L410.062 37.7223L417.064 24.0947L416.134 23.5558L407.823 36.5911L403.162 24.0364L402.115 24.3666L406.094 39.8002L366.48 71.4976L359.847 18.6767L373.279 10.7293L372.785 9.7777L360.995 15.1423L364.91 0.325276L363.883 0L358.563 14.5209L351.318 3.26247L350.369 3.81107L357.623 18.1426L326.766 66.5359L317.569 58.8604L304.301 64.8125L125.667 45.9027C105.228 43.7375 84.6097 49.306 68.3865 61.9481C58.7437 69.4634 49.8471 78.7411 41.4544 89.2713C25.7255 109.011 6.71121 139.475 0 157.604L47.1771 177.387L82.3032 122.144L94.7565 127.994L65.4064 183.286V284.937H189.237V254.711H151.533V183.286H215.713V284.937H326.102V253.356H288.853L287.938 177.562L345.925 140.908L359.314 160.439L391.615 134.261L388.523 117.677L399.659 104.176L391.891 89.1305V89.1353Z" fill="black"/>
<path d="M381.298 116.25L377.059 97.7476L360.869 93.7861L357.08 84.1055L356.741 84.2074L358.907 94.49L362.473 112.157L381.298 116.24V116.25ZM378.401 113.38L366.417 110.778C367.745 109.661 370.013 107.72 371.37 106.38C372.722 105.044 374.548 102.622 375.605 101.17L378.401 113.375V113.38ZM373.943 99.2381C372.499 100.35 370.003 102.311 368.574 103.729C367.154 105.132 365.138 107.336 363.985 108.618L361.48 96.1892L373.948 99.2381H373.943Z" fill="white"/>
<path d="M286.92 285.015L286.096 254.711L287.482 256.099H253.563H252.157L252.177 254.711L253.034 183.082H254.086L254.948 254.711L253.563 253.322H287.482H288.907L288.868 254.711L288.044 285.015H286.92Z" fill="white"/>
<path d="M112.957 184.179L113.785 256.041L112.399 254.652H150.157H151.586L151.542 256.041L150.724 284.942H149.595L148.771 256.041L150.157 257.429H112.399H110.994L111.014 256.041L111.837 184.179H112.957Z" fill="white"/>
</svg>
