<svg width="325" height="491" viewBox="0 0 325 491" fill="none" xmlns="http://www.w3.org/2000/svg">
<path d="M226.031 108.649L145.886 9.42242L84.6964 42.0567C84.6964 42.0567 -95.8656 14.3605 -190.441 1.55906C-249.707 -6.46532 -293.067 19.0481 -294.901 20.0411C-313.696 30.2572 -333.949 50.0364 -342.501 60.5298C-385.128 112.809 -416 180.627 -416 180.627L-339.111 211.955L-293.917 141.015L-267.026 152.018L-342.126 277.179H-407.394V431.396H-205.13L-204.978 379.108H-267.777L-267.929 308.015L-219.201 257.955L86.9955 354.954L152.908 490.841H278.793V438.722H216.173L152.899 286.384L226.013 108.64L226.031 108.649Z" fill="black"/>
<path d="M268.166 194.037L324.659 211.284L282.792 352.091L219.76 333.502L268.166 194.037Z" fill="black"/>
<path d="M283.043 27.4124L281.817 26.0795L268.676 36.7339L267.531 17.1158H265.831L264.695 36.5103L252.439 25.7306L251.151 27.0188L265.08 42.8529L265.16 42.7724L216.772 124.215C216.772 124.215 200.205 114.16 176.427 114.16C152.649 114.16 136.931 122.086 136.931 122.086L87.4518 42.173L87.5502 42.2714L101.488 26.4463L100.182 25.1402L87.9438 35.9109L86.8524 16.5343H85.0542L83.945 36.1435L70.8215 25.498L69.587 26.8309L84.4191 42.334L84.6875 42.0388V238.167L176.427 303.006L268.166 238.167V42.8708L268.211 42.9155L283.043 27.4124Z" fill="black"/>
<path d="M121.777 200.836L106.64 194.35L106.381 194.842L120.39 203.833L144.293 219.461L169.887 202.732L144.293 186.943L121.786 200.827L121.777 200.836ZM142.495 192.122C142.137 194.985 141.574 199.995 141.574 203.188C141.574 206.382 141.815 211.088 141.976 213.807L125.167 202.813L142.504 192.114L142.495 192.122ZM147.129 213.467C147.353 210.721 147.693 206.006 147.693 202.983C147.693 199.959 146.995 195.209 146.539 192.4L163.419 202.813L147.129 213.467Z" fill="white"/>
<path d="M246.49 194.842L246.231 194.35L231.094 200.836L208.587 186.952L182.993 202.741L208.587 219.47L232.49 203.841L246.499 194.851L246.49 194.842ZM206.332 192.4C205.876 195.209 205.178 199.968 205.178 202.983C205.178 205.997 205.518 210.721 205.742 213.467L189.452 202.813L206.332 192.4ZM210.895 213.807C211.056 211.079 211.297 206.355 211.297 203.188C211.297 200.022 210.734 194.994 210.376 192.122L227.713 202.822L210.904 213.816L210.895 213.807Z" fill="white"/>
<path d="M84.5801 237.674L83.7034 237.021V235.885L84.0702 45.2056L88.2479 51.8881V44.0069L138.541 123.893L135.285 123.267C138.622 121.048 141.842 119.831 145.474 118.561C155.771 115.206 166.685 114.097 177.42 114.124C188.19 114.196 199.158 115.725 209.249 119.769C212.666 121.2 215.851 122.694 219.089 125.136L215.547 126.031L225.637 109.284L226.031 108.649L219.742 127.722L218.803 130.575L216.2 128.616C199.086 117.398 176.462 117.228 156.826 120.359C149.536 121.737 141.949 123.875 135.947 128.267L134.703 126.281L84.0702 45.1967L88.2479 43.9979L88.221 235.876L87.3443 234.087L152.926 286.393L84.5891 237.666L84.5801 237.674Z" fill="white"/>
</svg>
