<svg width="398" height="342" viewBox="0 0 398 342" fill="none" xmlns="http://www.w3.org/2000/svg">
<path d="M336.774 192.594L362.779 123.332L380.884 134.545L398 101.233L389.442 88.698L393.721 73.5247L381.872 63.9604L377.608 17.8317L387.09 7.25743L386.408 6.57426L377.736 14.3762L377.099 0.594059H376.13L375.483 14.505L366.223 6.80198L365.556 7.5297L375.77 17.9851L375.78 17.9703L354.548 58.6733L329.792 17.3366L339.363 6.66337L338.681 5.9802L330.01 13.7822L329.372 0H328.404L327.757 13.9109L318.497 6.20792L317.83 6.93564L328.009 17.3564L318.665 77.9653L296.608 100.723L277.762 85.9653L255.295 99.5693C255.295 99.5693 104.392 85.8812 59.7484 110.703C21.4792 131.985 0 187.644 0 187.644L42.4692 205.455L74.1371 155.708L85.3485 160.975L57.8411 208.485L60.2475 235.139L16.795 311.822L88.3972 342L101.234 318.069L69.2256 302.753L99.2579 240.579L116.048 238.599L151.56 198.733L165.306 207.554L125.431 259.995L164.195 342H227.155V312.926H191.929L170.86 262.515L204.934 212.134H266.59L278.538 257.436L239.873 266.941L246.944 295.748L312.745 279.733L322.949 342H395.371V312.317H360.477L336.774 192.589V192.594Z" fill="black"/>
</svg>
