<svg width="296" height="305" viewBox="0 0 296 305" fill="none" xmlns="http://www.w3.org/2000/svg">
<path d="M31.9864 176.624H13.4196V192.181H31.9864V176.624Z" fill="black"/>
<path d="M62.5224 176.624H43.9556V192.181H62.5224V176.624Z" fill="black"/>
<path d="M31.9864 201.782H13.4196V217.34H31.9864V201.782Z" fill="black"/>
<path d="M62.5224 201.782H43.9556V217.34H62.5224V201.782Z" fill="black"/>
<path d="M31.9864 226.938H13.4196V242.495H31.9864V226.938Z" fill="black"/>
<path d="M62.5224 226.938H43.9556V242.495H62.5224V226.938Z" fill="black"/>
<path d="M31.9864 252.093H13.4196V267.65H31.9864V252.093Z" fill="black"/>
<path d="M62.5224 252.093H43.9556V267.65H62.5224V252.093Z" fill="black"/>
<path d="M31.9864 277.248H13.4196V292.805H31.9864V277.248Z" fill="black"/>
<path d="M62.5224 277.248H43.9556V292.805H62.5224V277.248Z" fill="black"/>
<path d="M264.1 192.184H282.666V176.627H264.1V192.184Z" fill="black"/>
<path d="M233.564 192.184H252.13V176.627H233.564V192.184Z" fill="black"/>
<path d="M264.1 217.335H282.666V201.778H264.1V217.335Z" fill="black"/>
<path d="M233.564 217.335H252.13V201.778H233.564V217.335Z" fill="black"/>
<path d="M264.1 242.495H282.666V226.937H264.1V242.495Z" fill="black"/>
<path d="M233.564 242.495H252.13V226.937H233.564V242.495Z" fill="black"/>
<path d="M264.1 267.65H282.666V252.093H264.1V267.65Z" fill="black"/>
<path d="M233.564 267.65H252.13V252.093H233.564V267.65Z" fill="black"/>
<path d="M264.1 292.809H282.666V277.251H264.1V292.809Z" fill="black"/>
<path d="M233.564 292.809H252.13V277.251H233.564V292.809Z" fill="black"/>
<path d="M190.21 192.185H208.777V176.627H190.21V192.185Z" fill="black"/>
<path d="M159.674 192.185H178.241V176.627H159.674V192.185Z" fill="black"/>
<path d="M190.21 167.421H208.777V151.864H190.21V167.421Z" fill="black"/>
<path d="M159.674 167.421H178.241V151.864H159.674V167.421Z" fill="black"/>
<path d="M190.21 217.336H208.777V201.779H190.21V217.336Z" fill="black"/>
<path d="M159.674 217.336H178.241V201.779H159.674V217.336Z" fill="black"/>
<path d="M190.21 242.495H208.777V226.937H190.21V242.495Z" fill="black"/>
<path d="M159.674 242.495H178.241V226.937H159.674V242.495Z" fill="black"/>
<path d="M190.21 267.65H208.777V252.093H190.21V267.65Z" fill="black"/>
<path d="M159.674 267.65H178.241V252.093H159.674V267.65Z" fill="black"/>
<path d="M190.21 292.809H208.777V277.251H190.21V292.809Z" fill="black"/>
<path d="M159.674 292.809H178.241V277.251H159.674V292.809Z" fill="black"/>
<path d="M289.414 162.111H222.114V152.088L215.528 137.78H147.847L141.597 126.156H80.6032L73.9832 138.486V162.111H6.67239L0.0822368 176.418L0 305H296V176.418L289.414 162.111ZM1.88771 303.119L1.96994 176.832L7.87978 163.995H73.972V303.119H1.88771ZM146.337 303.119H75.8559V163.051L75.8634 138.96L81.7247 128.041H140.46L146.333 138.96V303.115L146.337 303.119ZM220.226 303.119H148.224V139.665H214.316L220.226 152.502V303.119ZM294.116 303.119H222.114V163.995H288.206L294.116 176.832V303.119Z" fill="black"/>
<path d="M133.642 138.725H88.5503V154.282H133.642V138.725Z" fill="black"/>
<path d="M133.642 166.429H88.5503V181.986H133.642V166.429Z" fill="black"/>
<path d="M133.642 194.136H88.5503V209.694H133.642V194.136Z" fill="black"/>
<path d="M133.642 221.84H88.5503V237.397H133.642V221.84Z" fill="black"/>
<path d="M133.642 249.544H88.5503V265.101H133.642V249.544Z" fill="black"/>
<path d="M133.642 277.248H88.5503V292.805H133.642V277.248Z" fill="black"/>
<path d="M207.091 62.046L180.805 87.0519L181.22 124.466H198.105V138.728H148.064V93.0487L118.967 81.1894L113.775 97.355L118.967 113.453H136.061V127.108H81.0368L78.4127 102.158L81.0854 80.8498L94.3928 55.8738L88.7484 53.2318L72.8244 78.1854L51.4391 69.2481C51.4391 69.2481 57.1284 56.5903 64.3091 46.4066C68.948 39.8277 74.0206 31.312 83.3395 25.7369C89.5932 21.9941 97.316 19.2923 106.997 18.6803C124.327 17.5832 192.655 35.0922 192.655 35.0922L199.82 32.286L207.098 62.0535L207.091 62.046Z" fill="black"/>
<mask id="mask0_143_1884" style="mask-type:luminance" maskUnits="userSpaceOnUse" x="51" y="18" width="157" height="121">
<path d="M207.091 62.046L180.805 87.0519L181.22 124.466H198.105V138.728H148.064V93.0487L118.967 81.1894L113.775 97.355L118.967 113.453H136.061V127.108H81.0368L78.4127 102.158L81.0854 80.8498L94.3928 55.8738L88.7484 53.2318L72.8244 78.1854L51.4391 69.2481C51.4391 69.2481 57.1284 56.5903 64.3091 46.4066C68.948 39.8277 74.0206 31.312 83.3395 25.7369C89.5932 21.9941 97.316 19.2923 106.997 18.6803C124.327 17.5832 192.655 35.0922 192.655 35.0922L199.82 32.286L207.098 62.0535L207.091 62.046Z" fill="white"/>
</mask>
<g mask="url(#mask0_143_1884)">
<path d="M179.968 125.07L180.596 125.697H165.221H164.586L164.593 125.07L164.982 81.0923H165.46L165.849 125.07L165.221 124.443H180.596H181.242L181.227 125.07L180.854 139.65H180.342L179.968 125.07Z" fill="white"/>
<path d="M101.476 81.6371L98.2318 98.8438V98.6572L101.843 113.886L101.23 113.397H118.982L118.963 114.024L118.589 128.04H118.077L117.703 114.024L118.331 114.651H100.718L100.613 114.162L97.3496 98.855L97.3272 98.7579C97.3272 98.6721 100.968 81.6333 100.976 81.54L101.473 81.6408L101.476 81.6371Z" fill="white"/>
</g>
<path d="M254.627 10.5157L254.291 10.15L250.635 13.1055L250.321 7.65723H249.835L249.525 13.042L246.12 10.0492L245.761 10.4075L249.633 14.8034L249.656 14.781L236.195 37.3986C236.195 37.3986 231.586 34.6073 224.974 34.6073C218.361 34.6073 213.988 36.809 213.988 36.809L200.332 14.7922L200.374 14.8332L204.246 10.4373L203.891 10.0828L200.486 13.0719L200.183 7.69081H199.678L199.372 13.1353L195.723 10.1761L195.376 10.553L199.458 14.8071V69.0505L224.974 87.0558L250.489 69.0505V14.8108L250.501 14.8258L254.624 10.5194L254.627 10.5157Z" fill="black"/>
<path d="M209.775 57.2736L205.562 55.4712L205.487 55.6093L209.386 58.1057L216.036 62.4457L223.153 57.7997L216.036 53.415L209.775 57.2698V57.2736ZM215.535 54.8555C215.434 55.6503 215.277 57.0422 215.277 57.9266C215.277 58.811 215.344 60.1208 215.389 60.8746L210.713 57.8221L215.535 54.8517V54.8555ZM216.825 60.7813C216.885 60.0201 216.982 58.7103 216.982 57.8706C216.982 57.031 216.787 55.71 216.66 54.9338L221.355 57.8259L216.825 60.7851V60.7813Z" fill="white"/>
<path d="M244.464 55.6094L244.389 55.4714L240.176 57.2738L233.915 53.4189L226.798 57.8036L233.915 62.4496L240.565 58.1096L244.464 55.6132V55.6094ZM233.291 54.9303C233.164 55.7102 232.969 57.0312 232.969 57.8671C232.969 58.703 233.063 60.0165 233.126 60.7778L228.596 57.8186L233.291 54.9265V54.9303ZM234.562 60.8748C234.607 60.1173 234.674 58.8037 234.674 57.9268C234.674 57.0499 234.517 55.6505 234.416 54.8556L239.238 57.826L234.562 60.8785V60.8748Z" fill="white"/>
<path d="M198.908 32.6334L199.462 32.417C199.462 32.417 200.561 41.1118 200.478 49.5864C200.404 57.5983 199.619 69.1589 199.619 69.1589L199.462 69.047C199.495 63.5465 199.196 55.0533 199.241 49.5864C199.204 44.668 199.006 37.6227 198.912 32.6334" fill="white"/>
</svg>
